<svg width="71" height="71" viewBox="0 0 71 71" fill="none" xmlns="http://www.w3.org/2000/svg">
<path fill-rule="evenodd" clip-rule="evenodd" d="M14.1407 62.849L16.2889 64.5025L20.0075 61.6687L23.7262 58.8349L25.0498 59.4698C25.7775 59.8189 27.3139 60.3806 28.464 60.718L30.5551 61.3312L31.2311 64.3699C31.6028 66.0408 32.0935 68.0275 32.3215 68.7846L32.7364 70.161L34.1551 70.3097C36.034 70.5068 39.157 70.3155 39.6022 69.9762C39.9285 69.7276 40.3676 68.0672 41.4154 63.1176L41.8115 61.2465L44.3233 60.3401C45.7047 59.8415 47.2554 59.2355 47.7694 58.9936C48.6521 58.578 48.8247 58.6496 50.8748 60.2825C52.0689 61.2334 53.7069 62.4292 54.5149 62.9397L55.984 63.8677L58.6362 61.8227C60.6119 60.2994 61.275 59.6419 61.2353 59.2452C61.1638 58.528 58.7834 53.8777 57.8849 52.7003C57.0622 51.6219 57.1081 51.1875 58.208 49.6315C58.6417 49.018 59.3993 47.6481 59.8917 46.5871L60.7867 44.6579L61.7693 44.7507C63.2857 44.8937 69.416 44.3768 69.8158 44.0721C70.2406 43.7484 71.0673 37.7481 70.7454 37.3258C70.5005 37.0045 67.1523 35.5086 64.429 34.5044L62.7045 33.868L62.0586 30.5489C61.7035 28.723 61.3136 27.0992 61.192 26.9397C61.056 26.7612 61.8366 25.8779 63.2269 24.6379C68.2344 20.1707 68.0919 20.5615 66.0007 17.0316C63.9662 13.598 64.5948 13.7504 59.5425 15.4658L55.4196 16.8661L53.3182 15.0358C52.1623 14.0291 50.8805 12.9991 50.4695 12.7468C49.7858 12.3271 49.7641 11.9126 50.2124 7.89369C50.7788 2.81284 50.9146 3.16632 47.9289 1.95482C43.8307 0.292516 43.4877 0.498773 40.1659 6.62152L39.1387 8.51488L37.4185 8.39152C36.4722 8.32373 34.764 8.33764 33.6223 8.42248C31.6763 8.56736 31.5173 8.51783 31.0863 7.63127C30.8331 7.11095 29.7422 5.3752 28.6616 3.77438L26.6969 0.863013L25.7378 1.14556C25.2106 1.30092 23.7229 1.83043 22.4316 2.32211L20.0845 3.21612L20.0602 4.44357C20.0466 5.11862 20.3044 7.18402 20.6329 9.03354L21.2299 12.3961L19.7806 13.5059C18.9831 14.1161 17.6888 15.2209 16.9037 15.9607L15.4764 17.3055L12.925 16.422C11.5217 15.9357 9.56189 15.3635 8.56969 15.1506C6.51309 14.7089 6.6354 14.6087 4.59812 18.4088L3.28074 20.8663L4.35711 21.9353C4.94943 22.5233 6.4977 23.9229 7.79771 25.0455C9.09773 26.1682 10.1403 27.1375 10.1143 27.1996C10.0886 27.2616 9.81516 28.9335 9.50677 30.9154L8.94608 34.5186L7.50137 35.0029C6.70697 35.2694 4.86592 36.0427 3.41082 36.7209L0.764722 37.9546L0.756914 38.8824C0.752186 39.3927 0.991116 40.9748 1.28745 42.3984L1.82606 44.9865L4.68378 45.2426C6.25545 45.3833 8.2871 45.431 9.1982 45.3483C10.7939 45.2034 10.8786 45.2404 11.5006 46.3512C11.8558 46.9855 12.7595 48.4665 13.5087 49.6421L14.8711 51.7797L12.854 55.7734C10.5299 60.3748 10.4655 60.0199 14.1407 62.849ZM20.8578 42.5472C14.8154 29.8203 25.2873 15.9754 38.9669 18.604C50.9364 20.9042 56.5577 35.3415 49.2448 45.0005C41.68 54.9913 26.1279 53.6473 20.8578 42.5472Z" fill="black"/>
</svg>
