<svg width="17" height="34" viewBox="0 0 17 34" fill="none" xmlns="http://www.w3.org/2000/svg">
<path d="M10.2386 5.54858L9.78746 2L8.43391 4.67954L7.20927 7.0694C7.20927 7.0694 6.38131 8.78898 5.85572 9.89378C5.17099 11.3331 4.80873 12.1531 4.11544 13.5872C3.49698 14.8666 3.03136 15.5162 2.50408 16.8461C1.92104 18.3166 1.63479 19.1805 1.34389 20.7568C1.06165 22.2862 0.948605 23.1801 1.02162 24.7399C1.08748 26.1469 1.11517 26.9898 1.60171 28.2885C2.21332 29.9209 2.79399 30.8714 4.11544 31.837C5.32409 32.7203 6.21924 32.9494 7.66045 32.9958C8.94341 33.037 9.68093 32.7764 10.8832 32.2716C12.0764 31.7705 12.785 31.434 13.7192 30.4611C14.692 29.4479 15.1337 28.6746 15.5884 27.2746C16.1079 25.675 16.0336 24.6265 15.9107 22.9294C15.8016 21.425 15.7173 21.1913 15.1372 19.1635C14.5571 17.1358 13.8693 16.4853 13.1391 14.7459C12.4073 13.0026 11.9555 12.0791 11.3988 10.2559C10.848 8.45159 10.2386 5.54858 10.2386 5.54858Z" fill="black" stroke="black"/>
</svg>
