<svg width="57" height="57" viewBox="0 0 57 57" fill="none" xmlns="http://www.w3.org/2000/svg">
<path fill-rule="evenodd" clip-rule="evenodd" d="M26.5975 55.966L28.7623 56.0971L29.9533 52.5515L31.1443 49.006L32.3059 48.8325C32.9445 48.7371 34.2141 48.4196 35.1272 48.1269L36.7873 47.5946L38.5986 49.3037C39.5947 50.2435 40.8112 51.339 41.3019 51.7381L42.1944 52.4636L43.2007 51.9253C44.5334 51.2127 46.5159 49.6845 46.6585 49.26C46.763 48.9489 46.3087 47.6522 44.7815 43.904L44.2041 42.4871L45.4609 40.7596C46.152 39.8094 46.9071 38.7122 47.1389 38.3213C47.537 37.6499 47.6834 37.62 49.7739 37.7814C50.9915 37.8753 52.6129 37.9322 53.3771 37.9076L54.7665 37.8629L55.6053 35.3184C56.2302 33.4229 56.3742 32.6899 56.1699 32.445C55.8008 32.002 52.1373 29.9905 51.0139 29.614C49.9851 29.2689 49.8206 28.9607 49.8508 27.4366C49.8627 26.8357 49.7496 25.5884 49.5996 24.6648L49.3266 22.9854L50.019 22.606C51.0874 22.0201 54.9154 18.9268 55.0435 18.5455C55.1795 18.1406 53.0343 13.7957 52.6317 13.6604C52.3252 13.5575 49.4365 14.0694 47.1822 14.6265L45.7546 14.9789L43.8373 13.0706C42.7827 12.0207 41.7958 11.1203 41.6437 11.0692C41.4735 11.012 41.5942 10.0767 41.9584 8.63155C43.2701 3.42589 43.351 3.74867 40.382 2.34933C37.4937 0.988369 37.9784 0.807208 35.4022 4.21054L33.3002 6.98814L31.0871 6.71901C29.8698 6.57103 28.5586 6.46411 28.1732 6.48145C27.5321 6.51025 27.3316 6.24551 25.825 3.38273C23.92 -0.236373 24.1686 -0.063233 21.6475 0.474307C18.1874 1.2125 18.0529 1.50301 18.6006 7.04868L18.7699 8.76358L17.5753 9.45387C16.9182 9.83363 15.7931 10.6094 15.0751 11.178C13.8513 12.1472 13.7238 12.1857 13.0405 11.792C12.6393 11.561 11.1379 10.901 9.7038 10.3258L7.09612 9.27937L6.58773 9.8969C6.30831 10.2364 5.56064 11.2547 4.92611 12.1598L3.77289 13.8052L4.30759 14.629C4.60153 15.0822 5.69917 16.3343 6.74669 17.4118L8.65108 19.3708L8.18927 20.7563C7.93496 21.5183 7.57357 22.8308 7.3856 23.6731L7.04384 25.2042L4.95759 25.764C3.81004 26.0717 2.25532 26.5723 1.50264 26.8765C-0.0575982 27.507 -0.021564 27.3857 0.334507 30.8166L0.5649 33.0354L1.75747 33.2603C2.41363 33.384 4.06708 33.616 5.43188 33.7762C6.79667 33.9363 7.92211 34.1104 7.93281 34.1632C7.94359 34.2157 8.51276 35.4457 9.19793 36.8967L10.4436 39.5346L9.70414 40.5037C9.2976 41.0367 8.42533 42.375 7.76601 43.4772L6.56722 45.4817L6.97838 46.0996C7.20428 46.4398 8.0725 47.3803 8.90762 48.1901L10.4258 49.6625L12.4333 48.5496C13.5373 47.9375 14.9042 47.0574 15.4705 46.5937C16.4623 45.7817 16.535 45.7682 17.4455 46.2247C17.9653 46.4854 19.2285 47.0607 20.2522 47.503L22.1137 48.3073L22.57 51.8574C23.0958 55.9478 22.8939 55.7417 26.5975 55.966ZM21.9354 39.5062C12.2223 33.7891 12.9444 19.9205 23.1838 15.5225C32.1431 11.6744 42.3449 18.7132 41.8364 28.392C41.3099 38.4034 30.407 44.4926 21.9354 39.5062Z" fill="#3C3C3C"/>
</svg>
