<svg width="62" height="131" viewBox="0 0 62 131" fill="none" xmlns="http://www.w3.org/2000/svg">
<path fill-rule="evenodd" clip-rule="evenodd" d="M50.4898 1.44595C49.1517 2.87085 17.8212 67.8362 17.8212 69.1861C17.8212 69.8271 32.5927 77.4863 33.8293 77.4863C34.8544 77.4863 62.0155 8.94503 62 6.39721C61.9698 1.39809 53.8247 -2.10516 50.4898 1.44595ZM16.012 73.1934C14.8691 75.3568 9.22286 95.0644 9.5142 95.873C9.71334 96.425 12.3323 98.0388 15.334 99.4596L20.7919 102.041L26.7163 91.713C29.9745 86.0332 32.3571 81.0852 32.0108 80.7189C30.7927 79.4301 16.3149 72.62 16.012 73.1934ZM4.06789 102.808L0 105.837L0.0325429 118.27L0.0643115 130.703L3.94313 122.045C6.25602 116.881 7.66312 112.716 7.42989 111.725C6.86736 109.337 8.02109 107.826 10.1604 108.148C12.5934 108.515 13.2419 112.058 10.991 112.686C9.60951 113.07 1.18937 130.144 1.96188 130.995C2.10755 131.156 6.11732 127.639 10.8725 123.181C19.343 115.239 19.5088 115.016 19.0656 112.163C18.8169 110.562 18.6092 108.236 18.6046 106.994C18.5976 105.068 17.9181 104.373 13.9695 102.25C8.29074 99.1981 8.96484 99.1601 4.06789 102.808Z" fill="black"/>
</svg>
