<svg width="62" height="123" viewBox="0 0 62 123" fill="none" xmlns="http://www.w3.org/2000/svg">
<path fill-rule="evenodd" clip-rule="evenodd" d="M11.5102 1.35765C12.8483 2.69553 44.1788 63.6936 44.1788 64.9609C44.1788 65.5629 29.4073 72.7543 28.1707 72.7543C27.1456 72.7543 -0.0154915 8.39877 7.62939e-06 6.00654C0.0302238 1.31271 8.17529 -1.9766 11.5102 1.35765ZM45.988 68.7236C47.1309 70.7548 52.7771 89.259 52.4858 90.0182C52.2867 90.5364 49.6677 92.0517 46.666 93.3857L41.2081 95.8097L35.2837 86.1122C32.0255 80.7793 29.6429 76.1335 29.9892 75.7895C31.2073 74.5795 45.6851 68.1852 45.988 68.7236ZM57.9321 96.5294L62 99.3741L61.9675 111.048L61.9357 122.722L58.0569 114.592C55.744 109.743 54.3369 105.833 54.5701 104.902C55.1326 102.66 53.9789 101.241 51.8396 101.544C49.4066 101.888 48.7581 105.215 51.009 105.804C52.3905 106.165 60.8106 122.196 60.0381 122.995C59.8924 123.146 55.8827 119.844 51.1275 115.659C42.657 108.202 42.4912 107.992 42.9344 105.314C43.1831 103.81 43.3908 101.626 43.3954 100.46C43.4024 98.6513 44.0819 97.999 48.0305 96.0057C53.7093 93.1402 53.0352 93.1045 57.9321 96.5294Z" fill="black"/>
</svg>
