<svg width="51" height="93" viewBox="0 0 51 93" fill="none" xmlns="http://www.w3.org/2000/svg">
<path d="M6.96239 2.97696L36.9766 73.8864C36.9766 73.8864 35.9533 74.2503 34.6175 74.5535C34.6175 74.5535 28.7957 75.4489 28.5106 73.1263C28.0671 69.5133 0.391737 4.12932 6.96239 2.97696Z" fill="black"/>
<path d="M36.9766 73.8864L6.96239 2.97696C11.6376 -0.0878113 40.039 64.446 42.3242 67.2793C43.7608 69.0606 41.2775 71.2136 39.2352 72.5668C38.029 73.3661 36.9766 73.8864 36.9766 73.8864Z" fill="black"/>
<path d="M43.6031 89.5417L44.0714 89.7169C44.0241 89.8433 43.9277 89.9452 43.8042 89.9995C43.6806 90.0538 43.5404 90.0558 43.4153 90.0051L43.6031 89.5417ZM43.016 74.0448L42.7506 74.4685L42.7506 74.4685L43.016 74.0448ZM32.8861 78.3325L33.3674 78.468L33.3674 78.468L32.8861 78.3325ZM36.9766 73.8864L37.1982 74.3346C37.1806 74.3433 37.1626 74.3509 37.1441 74.3575L36.9766 73.8864ZM42.3242 67.2793L42.7134 66.9654L42.3242 67.2793ZM28.5106 73.1263L28.0144 73.1872L28.0144 73.1872L28.5106 73.1263ZM43.6031 89.5417C43.1348 89.3665 43.1348 89.3666 43.1347 89.3666C43.1348 89.3666 43.1348 89.3665 43.1348 89.3664C43.1349 89.3662 43.1351 89.3658 43.1353 89.3652C43.1357 89.364 43.1365 89.362 43.1374 89.3593C43.1394 89.354 43.1425 89.3458 43.1465 89.3347C43.1546 89.3126 43.1667 89.2793 43.1824 89.2352C43.2138 89.1472 43.2596 89.0167 43.3163 88.8488C43.4296 88.5131 43.5863 88.0284 43.7586 87.4363C44.1036 86.2504 44.5087 84.6411 44.7542 82.9371C45.0004 81.2277 45.0815 79.4528 44.7981 77.9243C44.515 76.3973 43.8817 75.1771 42.7506 74.4685L43.2815 73.6211C44.7364 74.5326 45.4695 76.0596 45.7814 77.742C46.093 79.4229 45.9975 81.3198 45.744 83.0796C45.4897 84.8448 45.0718 86.5021 44.7188 87.7157C44.542 88.3232 44.3809 88.8215 44.2637 89.1687C44.2051 89.3423 44.1574 89.4783 44.1242 89.5713C44.1076 89.6179 44.0946 89.6537 44.0857 89.6782C44.0812 89.6904 44.0777 89.6998 44.0753 89.7063C44.0741 89.7096 44.0732 89.7121 44.0725 89.7138C44.0722 89.7147 44.0719 89.7154 44.0718 89.7159C44.0717 89.7162 44.0716 89.7164 44.0715 89.7166C44.0714 89.7168 44.0714 89.7169 43.6031 89.5417ZM33.3674 78.468C32.9871 79.8195 33.3697 81.1371 34.2405 82.4005C35.1156 83.6703 36.4551 84.8387 37.8813 85.8392C39.3023 86.8362 40.7811 87.6471 41.908 88.2097C42.4705 88.4906 42.9434 88.7086 43.2747 88.8561C43.4403 88.9298 43.5705 88.9858 43.6587 89.0232C43.7028 89.0419 43.7364 89.0559 43.7587 89.0651C43.7699 89.0697 43.7782 89.0732 43.7836 89.0754C43.7863 89.0765 43.7882 89.0773 43.7895 89.0778C43.7901 89.078 43.7905 89.0782 43.7907 89.0783C43.7908 89.0783 43.7909 89.0783 43.7909 89.0784C43.7909 89.0784 43.7909 89.0783 43.6031 89.5417C43.4153 90.0051 43.4151 90.0051 43.4149 90.005C43.4148 90.0049 43.4146 90.0048 43.4143 90.0047C43.4138 90.0045 43.4131 90.0042 43.4122 90.0039C43.4104 90.0031 43.4078 90.0021 43.4045 90.0007C43.398 89.9981 43.3885 89.9941 43.3761 89.989C43.3514 89.9788 43.3153 89.9637 43.2686 89.9439C43.1753 89.9044 43.0396 89.846 42.8682 89.7697C42.5253 89.6172 42.0389 89.3928 41.4613 89.1044C40.3076 88.5284 38.782 87.6927 37.3069 86.6578C35.837 85.6265 34.3888 84.3778 33.4171 82.968C32.4411 81.5519 31.9178 79.9274 32.4048 78.1971L33.3674 78.468ZM36.5161 74.0813L6.50194 3.17186L7.42284 2.78206L37.437 73.6915L36.5161 74.0813ZM41.935 67.5932C41.7566 67.3721 41.4894 66.9083 41.1606 66.2919C40.8224 65.6576 40.3952 64.8153 39.8922 63.7989C38.886 61.7655 37.5694 59.0211 36.0411 55.8213C32.9833 49.4191 29.0747 41.1865 25.0914 33.1381C21.1069 25.0873 17.054 17.2337 13.7085 11.5877C12.0335 8.76097 10.5481 6.50862 9.34601 5.06357C8.74143 4.33678 8.23339 3.84496 7.83079 3.58111C7.4063 3.30292 7.26527 3.37627 7.23652 3.39512L6.68827 2.5588C7.24391 2.19455 7.87264 2.41292 8.37893 2.74472C8.90711 3.09088 9.49088 3.67403 10.1148 4.42406C11.3697 5.93265 12.888 8.24133 14.5688 11.0779C17.9348 16.7585 22.0017 24.6408 25.9876 32.6946C29.9748 40.7508 33.8871 48.9912 36.9434 55.3903C38.4722 58.5911 39.7859 61.3293 40.7885 63.3554C41.29 64.3688 41.7119 65.2004 42.043 65.8213C42.3836 66.46 42.6061 66.8324 42.7134 66.9654L41.935 67.5932ZM28.0144 73.1872C27.9939 73.0207 27.8787 72.6041 27.6489 71.9136C27.426 71.2434 27.1113 70.3611 26.7187 69.2947C25.9337 67.1627 24.8432 64.3111 23.5658 60.9824C21.0121 54.3279 17.7146 45.7756 14.6362 37.2996C11.5591 28.8269 8.69517 20.4151 7.01154 14.0436C6.17107 10.863 5.61688 8.16237 5.48475 6.20758C5.41906 5.23581 5.45388 4.40288 5.63664 3.7752C5.82109 3.14175 6.19842 2.60331 6.87602 2.48448L7.04876 3.46944C6.90503 3.49465 6.72858 3.60207 6.59677 4.05476C6.46328 4.51321 6.41937 5.20671 6.48247 6.14013C6.6079 7.99571 7.14132 10.6205 7.97835 13.7881C9.64972 20.1132 12.5004 28.4893 15.5762 36.9582C18.6508 45.4239 21.9447 53.967 24.4994 60.6241C25.7763 63.9513 26.8694 66.8096 27.6571 68.9492C28.0509 70.0188 28.3698 70.9127 28.5978 71.5979C28.819 72.2626 28.9719 72.7802 29.0069 73.0653L28.0144 73.1872ZM36.9766 73.8864C36.755 73.4382 36.7549 73.4382 36.7549 73.4382C36.7549 73.4382 36.7549 73.4382 36.7549 73.4382C36.7549 73.4382 36.7549 73.4382 36.7549 73.4382C36.7549 73.4382 36.755 73.4382 36.7552 73.4381C36.7555 73.4379 36.7561 73.4376 36.7569 73.4372C36.7586 73.4364 36.7612 73.4351 36.7649 73.4333C36.7721 73.4296 36.7832 73.424 36.798 73.4166C36.8275 73.4016 36.8717 73.379 36.9287 73.3493C37.0427 73.2898 37.208 73.2019 37.4107 73.0893C37.8164 72.8638 38.3695 72.5407 38.959 72.15L39.5114 72.9836C38.8947 73.3922 38.3184 73.7289 37.8964 73.9634C37.6852 74.0808 37.512 74.1729 37.391 74.236C37.3305 74.2675 37.283 74.2918 37.2503 74.3084C37.2339 74.3167 37.2213 74.3231 37.2125 74.3275C37.2081 74.3297 37.2047 74.3314 37.2023 74.3326C37.2011 74.3331 37.2002 74.3336 37.1995 74.334C37.1991 74.3341 37.1989 74.3343 37.1986 74.3344C37.1985 74.3344 37.1984 74.3345 37.1984 74.3345C37.1983 74.3345 37.1983 74.3346 37.1983 74.3346C37.1982 74.3346 37.1982 74.3346 36.9766 73.8864ZM39.2601 72.0674C40.2659 72.1175 41.5716 72.5499 43.2815 73.6211L42.7506 74.4685C41.1186 73.4461 39.981 73.1045 39.2104 73.0662L39.2601 72.0674ZM39.2104 73.0662C38.4269 73.0272 38.0008 73.2993 37.7664 73.5404C37.6427 73.6677 37.5624 73.7972 37.5138 73.8932C37.4896 73.9408 37.474 73.9789 37.4651 74.0024C37.4607 74.0141 37.458 74.0221 37.4569 74.0256C37.4563 74.0273 37.4561 74.0279 37.4563 74.0273C37.4564 74.0271 37.4566 74.0265 37.4568 74.0255C37.457 74.0251 37.4571 74.0246 37.4573 74.0239C37.4574 74.0236 37.4575 74.0233 37.4576 74.023C37.4576 74.0228 37.4577 74.0225 37.4577 74.0224C37.4578 74.0221 37.4579 74.0219 36.9766 73.8864C36.4953 73.7509 36.4954 73.7507 36.4954 73.7504C36.4955 73.7502 36.4956 73.7499 36.4956 73.7497C36.4957 73.7493 36.4959 73.7488 36.496 73.7483C36.4963 73.7474 36.4966 73.7463 36.4969 73.7452C36.4976 73.7429 36.4984 73.7403 36.4993 73.7374C36.501 73.7314 36.5033 73.7241 36.5061 73.7156C36.5117 73.6984 36.5194 73.6761 36.5295 73.6494C36.5496 73.596 36.5795 73.5245 36.6217 73.4412C36.7058 73.2753 36.8412 73.0575 37.0495 72.8433C37.4791 72.4014 38.1823 72.0138 39.2601 72.0674L39.2104 73.0662ZM38.959 72.15C39.9688 71.4809 41.0408 70.6428 41.6841 69.7839C42.0045 69.356 42.1919 68.9577 42.2391 68.601C42.2836 68.2648 42.2091 67.9331 41.935 67.5932L42.7134 66.9654C43.1575 67.5162 43.3113 68.1216 43.2305 68.7323C43.1523 69.3226 42.8606 69.8811 42.4845 70.3833C41.7347 71.3844 40.5439 72.2994 39.5114 72.9836L38.959 72.15ZM32.4048 78.1971C32.9611 76.2202 33.5946 74.9838 34.2368 74.2294L34.9982 74.8776C34.4869 75.4783 33.9041 76.561 33.3674 78.468L32.4048 78.1971ZM34.5068 74.0659C35.1601 73.9176 35.7378 73.7543 36.1522 73.628C36.3591 73.5649 36.5248 73.5112 36.638 73.4736C36.6946 73.4547 36.7381 73.4399 36.7671 73.4299C36.7816 73.4249 36.7924 73.4211 36.7995 73.4187C36.803 73.4174 36.8056 73.4165 36.8072 73.416C36.808 73.4157 36.8085 73.4155 36.8089 73.4154C36.809 73.4153 36.8091 73.4153 36.8091 73.4153C36.8092 73.4153 36.8092 73.4153 36.8091 73.4153C36.8091 73.4153 36.8091 73.4153 36.8091 73.4153C36.8091 73.4153 36.8091 73.4153 36.9766 73.8864C37.1441 74.3575 37.1441 74.3575 37.144 74.3575C37.144 74.3575 37.1439 74.3576 37.1439 74.3576C37.1438 74.3576 37.1437 74.3576 37.1436 74.3577C37.1434 74.3577 37.1431 74.3578 37.1428 74.358C37.1421 74.3582 37.1412 74.3585 37.14 74.3589C37.1377 74.3598 37.1343 74.361 37.13 74.3625C37.1214 74.3655 37.109 74.3698 37.0929 74.3753C37.0607 74.3864 37.0138 74.4024 36.9536 74.4224C36.8333 74.4625 36.6596 74.5187 36.4438 74.5845C36.0125 74.716 35.4107 74.8862 34.7282 75.0411L34.5068 74.0659ZM36.9766 73.8864C36.682 74.2904 36.6823 74.2906 36.6826 74.2908C36.6826 74.2909 36.6829 74.2911 36.6831 74.2912C36.6834 74.2914 36.6837 74.2917 36.6841 74.2919C36.6847 74.2924 36.6852 74.2928 36.6857 74.2931C36.6867 74.2938 36.6875 74.2944 36.6881 74.2947C36.6891 74.2955 36.6893 74.2956 36.6885 74.2951C36.687 74.2941 36.682 74.2908 36.6737 74.286C36.657 74.2762 36.6279 74.2604 36.5882 74.2435C36.5081 74.2093 36.3907 74.173 36.2472 74.1672C35.9868 74.1568 35.5388 74.2427 34.9982 74.8776L34.2368 74.2294C34.9501 73.3915 35.6816 73.1438 36.2872 73.168C36.5768 73.1796 36.8141 73.2527 36.9804 73.3236C37.0638 73.3592 37.1309 73.3948 37.1795 73.4233C37.2039 73.4376 37.2239 73.4503 37.2392 73.4603C37.2468 73.4654 37.2533 73.4698 37.2587 73.4735C37.2613 73.4754 37.2637 73.4771 37.2658 73.4785C37.2668 73.4793 37.2678 73.48 37.2687 73.4806C37.2691 73.4809 37.2696 73.4812 37.27 73.4815C37.2702 73.4817 37.2705 73.4819 37.2706 73.482C37.2708 73.4822 37.2711 73.4824 36.9766 73.8864ZM34.6175 74.5535C34.6935 75.0477 34.6934 75.0477 34.6932 75.0477C34.6932 75.0478 34.693 75.0478 34.6928 75.0478C34.6925 75.0479 34.6921 75.0479 34.6917 75.048C34.6907 75.0481 34.6894 75.0483 34.6877 75.0486C34.6844 75.0491 34.6797 75.0498 34.6736 75.0507C34.6615 75.0525 34.644 75.055 34.6215 75.0582C34.5765 75.0645 34.5113 75.0733 34.4287 75.0836C34.2637 75.1042 34.0289 75.1308 33.7465 75.1553C33.1838 75.204 32.4237 75.2449 31.6487 75.2104C30.8825 75.1762 30.0596 75.0668 29.3938 74.7911C28.7235 74.5134 28.1166 74.0202 28.0144 73.1872L29.0069 73.0653C29.0472 73.3936 29.2749 73.6594 29.7764 73.8672C30.2824 74.0767 30.9684 74.179 31.6932 74.2114C32.4093 74.2433 33.1225 74.2056 33.6603 74.159C33.9282 74.1358 34.1504 74.1106 34.3048 74.0913C34.382 74.0817 34.4422 74.0735 34.4826 74.0679C34.5028 74.065 34.518 74.0628 34.528 74.0613C34.5329 74.0606 34.5366 74.0601 34.5388 74.0597C34.54 74.0596 34.5408 74.0594 34.5412 74.0594C34.5414 74.0593 34.5416 74.0593 34.5416 74.0593C34.5416 74.0593 34.5416 74.0593 34.5416 74.0593C34.5416 74.0593 34.5415 74.0593 34.6175 74.5535ZM43.1491 89.7512L40.1312 83.2094L41.0392 82.7905L44.0571 89.3323L43.1491 89.7512Z" fill="black"/>
<path d="M40.4485 82.8632C39.6645 83.1022 38.818 82.7084 38.5832 81.938C38.3484 81.1676 38.8312 80.3685 39.6153 80.1295C40.3993 79.8906 41.2458 80.2844 41.4806 81.0548C41.7154 81.8252 41.2325 82.6243 40.4485 82.8632Z" stroke="black" stroke-width="0.5"/>
</svg>
