<svg width="78" height="114" viewBox="0 0 78 114" fill="none" xmlns="http://www.w3.org/2000/svg">
<path fill-rule="evenodd" clip-rule="evenodd" d="M33.839 80.8138L33.3908 95.4252L24.5689 113.673L23.7666 91.6773L28.7532 78.6228L33.839 80.8138ZM28.7785 96.9408C27.173 102.537 26.303 105.107 26.277 104.857C26.3887 104.667 26.4881 101.844 26.9635 96.3181L26.9091 96.2152C26.7719 96.1561 26.6083 95.8468 26.4992 95.6403C26.172 95.0217 26.0658 94.4187 26.1797 93.831C26.322 93.0966 26.628 92.6707 27.1254 92.4076C27.3744 92.276 27.7607 92.2035 28.0355 92.3223L28.1183 92.2785L28.6681 92.5153C28.9434 92.6339 29.135 92.7959 29.327 92.9585C29.5734 93.2241 29.7655 93.3858 29.8747 93.5922C30.2018 94.2109 30.2536 94.711 30.3059 95.2108L30.2231 95.2546C30.2775 95.3575 30.1946 95.4013 30.2494 95.5048C30.1355 96.0925 29.8581 96.3709 29.4982 96.6936L29.0002 96.9569C28.9174 97.0007 28.7796 96.9419 28.7796 96.9419L28.7785 96.9408Z" fill="black"/>
<path fill-rule="evenodd" clip-rule="evenodd" d="M48.3172 3.64036L36.7364 79.5769L27.5779 75.7225C29.0178 69.0214 44.1099 1.91146 44.7438 1.70721C44.8811 1.76618 45.4882 1.70871 45.9289 1.73864C46.9744 2.10827 48.1834 2.78644 48.3168 3.63952L48.3172 3.64036Z" fill="black"/>
</svg>
