<svg width="78" height="114" viewBox="0 0 78 114" fill="none" xmlns="http://www.w3.org/2000/svg">
<path fill-rule="evenodd" clip-rule="evenodd" d="M43.6626 80.3903L44.1107 95.0016L52.9326 113.249L53.735 91.2538L48.7483 78.1992L43.6626 80.3903ZM48.723 96.5172C50.3286 102.114 51.1986 104.683 51.2245 104.434C51.1128 104.243 51.0134 101.421 50.538 95.8945L50.5924 95.7916C50.7297 95.7325 50.8932 95.4232 51.0024 95.2168C51.3295 94.5981 51.4357 93.9951 51.3218 93.4074C51.1796 92.673 50.8736 92.2471 50.3761 91.9841C50.1271 91.8524 49.7409 91.7799 49.4661 91.8987L49.3832 91.8549L48.8334 92.0917C48.5582 92.2103 48.3665 92.3723 48.1745 92.5349C47.9281 92.8005 47.736 92.9622 47.6269 93.1686C47.2997 93.7873 47.2479 94.2874 47.1956 94.7872L47.2785 94.831C47.2241 94.9339 47.3069 94.9777 47.2522 95.0812C47.366 95.6689 47.6434 95.9473 48.0033 96.27L48.5013 96.5333C48.5842 96.5771 48.7219 96.5183 48.7219 96.5183L48.723 96.5172Z" fill="black"/>
<path fill-rule="evenodd" clip-rule="evenodd" d="M29.1844 3.21678L40.7652 79.1533L49.9237 75.2989C48.4838 68.5978 33.3917 1.48787 32.7578 1.28362C32.6205 1.3426 32.0134 1.28512 31.5727 1.31505C30.5272 1.68469 29.3182 2.36285 29.1848 3.21594L29.1844 3.21678Z" fill="black"/>
</svg>
