<svg width="248" height="156" viewBox="0 0 248 156" fill="none" xmlns="http://www.w3.org/2000/svg">
<path d="M9 60.7334L8.62637 57.2801L0.433628 57.8862L6.70802 63.3008L9 60.7334ZM50.946 96.931L48.654 99.4984L50.1611 100.799L52.0425 100.255L50.946 96.931ZM233.552 44.1193L234.649 47.4431C236.37 46.9455 237.389 45.2436 237.011 43.4997C236.632 41.7558 234.979 40.5328 233.179 40.666L233.552 44.1193ZM6.70802 63.3008L48.654 99.4984L53.2379 94.3636L11.292 58.166L6.70802 63.3008ZM52.0425 100.255L234.649 47.4431L232.456 40.7955L49.8494 93.6072L52.0425 100.255ZM233.179 40.666L8.62637 57.2801L9.37363 64.1867L233.926 47.5727L233.179 40.666Z" fill="black"/>
<path d="M37.5551 148.853L39.3266 151.902L32.1959 155.727L34.1159 147.943L37.5551 148.853ZM50.391 96.8117L46.9519 95.9018L47.4131 94.032L49.2945 93.4879L50.391 96.8117ZM232.997 44.0001L231.901 40.6763C233.622 40.1786 235.489 41.0457 236.227 42.6856C236.965 44.3255 236.336 46.2086 234.769 47.0491L232.997 44.0001ZM34.1159 147.943L46.9519 95.9018L53.8301 97.7216L40.9942 149.763L34.1159 147.943ZM49.2945 93.4879L231.901 40.6763L234.094 47.3239L51.4875 100.135L49.2945 93.4879ZM234.769 47.0491L39.3266 151.902L35.7835 145.804L231.226 40.951L234.769 47.0491Z" fill="black"/>
</svg>
