<svg width="41" height="40" viewBox="0 0 41 40" fill="none" xmlns="http://www.w3.org/2000/svg">
<path fill-rule="evenodd" clip-rule="evenodd" d="M20.2887 39.7416L21.8377 39.7412L22.5328 37.1616L23.2279 34.582L24.0485 34.4079C24.4997 34.3122 25.391 34.0307 26.0293 33.7824L27.1897 33.3309L28.5553 34.4709C29.3063 35.0978 30.2212 35.8261 30.5884 36.0894L31.2562 36.5679L31.9503 36.1405C32.8695 35.5745 34.2165 34.399 34.2997 34.0901C34.3607 33.8638 33.9805 32.959 32.7288 30.3528L32.2556 29.3676L33.0765 28.0814C33.5279 27.374 34.0186 26.5589 34.1669 26.2701C34.4216 25.7742 34.5247 25.7465 36.0221 25.7708C36.8942 25.785 38.0527 25.7552 38.5964 25.7045L39.5851 25.6124L40.0725 23.7618C40.4357 22.3833 40.5065 21.8544 40.3502 21.6886C40.0678 21.3888 37.3686 20.1135 36.5513 19.8938C35.8028 19.6924 35.6721 19.4798 35.6274 18.3918C35.6098 17.9628 35.475 17.0785 35.328 16.4264L35.0604 15.2409L35.5375 14.9404C36.2738 14.4763 38.8685 12.1047 38.9433 11.8273C39.0226 11.5327 37.3045 8.52795 37.0115 8.44897C36.7886 8.38888 34.7513 8.87917 33.1684 9.37412L32.1658 9.68734L30.716 8.40991C29.9185 7.70709 29.1758 7.10792 29.0652 7.07809C28.9413 7.04471 28.9867 6.37262 29.1836 5.32643C29.8926 1.55796 29.9643 1.78458 27.7868 0.915666C25.6685 0.0706135 26.0062 -0.0795773 24.3173 2.45871L22.9394 4.53029L21.3499 4.43441C20.4756 4.3817 19.5362 4.36235 19.2621 4.39144C18.8063 4.43978 18.6519 4.25972 17.4534 2.28395C15.938 -0.21379 16.1227 -0.101127 14.3487 0.391495C11.9139 1.06791 11.8306 1.28088 12.462 5.21112L12.6573 6.42647L11.8356 6.97046C11.3836 7.26973 10.6152 7.87167 10.1279 8.30818C9.29761 9.0523 9.20837 9.08532 8.70408 8.83426C8.40804 8.68697 7.30894 8.28153 6.26153 7.93361L4.35693 7.30063L4.02131 7.76297C3.83685 8.01713 3.34805 8.77562 2.93499 9.44847L2.18429 10.6716L2.60129 11.2358C2.83055 11.5462 3.6675 12.3913 4.46113 13.1141L5.90397 14.4283L5.63492 15.4361C5.48671 15.9904 5.28609 16.9419 5.18867 17.5506L5.01153 18.6571L3.54849 19.1468C2.74371 19.4159 1.65703 19.8403 1.13363 20.0898C0.048664 20.607 0.0690864 20.519 0.472006 22.9498L0.732661 24.5217L1.59267 24.6303C2.06585 24.69 3.25474 24.7838 4.23472 24.8387C5.2147 24.8937 6.02464 24.969 6.03456 25.0062C6.04453 25.0432 6.50375 25.8955 7.05528 26.9003L8.05795 28.727L7.57289 29.4501C7.3062 29.8477 6.74247 30.8397 6.3203 31.6542L5.55272 33.1354L5.8727 33.5581C6.04853 33.7908 6.70839 34.4238 7.33896 34.9649L8.48529 35.9488L9.86818 35.0683C10.6287 34.584 11.565 33.8972 11.9486 33.542C12.6204 32.92 12.6716 32.9072 13.3406 33.1932C13.7225 33.3566 14.6481 33.7119 15.3971 33.9829L16.7593 34.4756L17.2388 36.987C17.7914 39.8806 17.6385 39.7424 20.2887 39.7416ZM16.2498 28.2083C9.07646 24.5534 8.98877 14.6339 16.0978 11.054C22.3181 7.9217 29.8972 12.4978 29.9551 19.4206C30.0148 26.5815 22.5061 31.396 16.2498 28.2083Z" fill="white"/>
</svg>
